<svg xmlns="http://www.w3.org/2000/svg" viewBox="0 0 511.07 239.09"><g id="Capa_2" data-name="Capa 2"><g id="Capa_1-2" data-name="Capa 1"><path xmlns="http://www.w3.org/2000/svg" class="logo-k" d="M45.46,217.24a1.27,1.27,0,0,1,.22.48.74.74,0,0,1-.26.55,1.47,1.47,0,0,1-.66.33c-.5.09-1.14.17-1.91.24s-1.55.13-2.33.17-1.48.08-2.1.1l-1.25,0a1.88,1.88,0,0,1-1.63-.8L13.82,191.61v25.76a1.13,1.13,0,0,1-1.05,1.23q-.75.14-1.65.24c-.6.07-1.18.13-1.75.17s-1.1.08-1.58.1l-1.08,0c-.7,0-1-.37-1-1.1V174.59a6.87,6.87,0,0,0-.24-2,2.91,2.91,0,0,0-.7-1.21,2.65,2.65,0,0,0-1.1-.61,5.28,5.28,0,0,0-1.43-.18,14,14,0,0,0-1.93.14L0,168.31c1.58-.29,3.08-.54,4.5-.74s2.67-.37,3.77-.49l2.74-.26q1.1-.09,1.41-.09a1.24,1.24,0,0,1,1.4,1.41v23.43L35.41,169a4.18,4.18,0,0,1,2-1.27,10.58,10.58,0,0,1,1.45-.29c.55-.07,1.12-.12,1.69-.15l1.58-.07,1.12,0a.91.91,0,0,1,.7.24.8.8,0,0,1,.22.55.84.84,0,0,1-.27.62L22.16,189.07Zm37.63-2.17a16.72,16.72,0,0,1-.2-2.74V187.27c0-1.05-.47-1.58-1.41-1.58a12,12,0,0,0-1.29.13c-.66.09-1.51.23-2.55.44s-2.23.46-3.57.77-2.81.68-4.39,1.12l.26,2.1a7,7,0,0,1,1.12-.15l1,0a2.92,2.92,0,0,1,2.32.85,5,5,0,0,1,.75,3.18v18.35c-.67.29-1.38.57-2.13.83s-1.48.49-2.19.68-1.39.34-2,.44a10.45,10.45,0,0,1-1.6.15,8.66,8.66,0,0,1-3.47-.61,5.55,5.55,0,0,1-2.29-1.82,7.67,7.67,0,0,1-1.24-3,20.14,20.14,0,0,1-.38-4.14v-.66L60,187.27c0-1.05-.46-1.58-1.4-1.58a11.52,11.52,0,0,0-1.29.13c-.66.09-1.51.23-2.55.44s-2.23.46-3.58.77-2.8.68-4.38,1.12l.26,2.1a6.81,6.81,0,0,1,1.12-.15l.94,0a3,3,0,0,1,2.35.85,4.74,4.74,0,0,1,.72,3.18L52,208.64a16.85,16.85,0,0,0,.55,4.41,9.28,9.28,0,0,0,1.69,3.4,7.58,7.58,0,0,0,2.92,2.19,10.27,10.27,0,0,0,4.23.79,13.9,13.9,0,0,0,2.59-.3c1-.21,2.15-.48,3.38-.82s2.52-.73,3.88-1.2,2.73-1,4.11-1.5l.65,2.46a1.94,1.94,0,0,0,.38.79.91.91,0,0,0,.72.27c.38,0,.83,0,1.34,0s1-.07,1.54-.13l1.49-.18c.48-.05.91-.11,1.29-.17.59-.15.88-.44.88-.88l0-.26C83.37,216.7,83.22,215.9,83.09,215.07Zm35-28.07a4.64,4.64,0,0,0-1.53-1.11,4.92,4.92,0,0,0-2.08-.42,11.07,11.07,0,0,0-2.44.31,23.74,23.74,0,0,0-2.9.85c-1,.37-2,.8-3.09,1.3s-2.08,1-3.08,1.58v-2.24c0-1.05-.46-1.58-1.4-1.58a12,12,0,0,0-1.29.13c-.66.09-1.51.23-2.55.44s-2.23.46-3.57.77-2.81.68-4.39,1.12l.26,2.1a6.81,6.81,0,0,1,1.12-.15l.94,0a2.94,2.94,0,0,1,2.33.85,5,5,0,0,1,.75,3.18V218c0,.73.35,1.1,1,1.1l1,0,1.44-.09,1.65-.18c.57-.07,1.11-.15,1.6-.24a1.12,1.12,0,0,0,1-1.23V192.71a20.53,20.53,0,0,1,3.23-1.45,9.2,9.2,0,0,1,3-.57,2.85,2.85,0,0,1,2.09.81,4,4,0,0,1,.81,2.83v1a3.5,3.5,0,0,0,.48.06l.48,0H114a6.19,6.19,0,0,0,2.37-.42,5,5,0,0,0,1.69-1.12,4.41,4.41,0,0,0,1-1.6,5.38,5.38,0,0,0,.33-1.87,5.57,5.57,0,0,0-.3-1.8A4.67,4.67,0,0,0,118.1,187Zm39.1,28.07a17.9,17.9,0,0,1-.2-2.74V187.27c0-1.05-.47-1.58-1.4-1.58a12.07,12.07,0,0,0-1.3.13c-.65.09-1.5.23-2.54.44s-2.23.46-3.58.77-2.81.68-4.39,1.12l.27,2.1a6.81,6.81,0,0,1,1.12-.15l.94,0a2.94,2.94,0,0,1,2.33.85,5,5,0,0,1,.74,3.18v18.35c-.67.29-1.38.57-2.13.83s-1.47.49-2.19.68-1.39.34-2,.44a10.45,10.45,0,0,1-1.6.15,8.69,8.69,0,0,1-3.47-.61,5.52,5.52,0,0,1-2.28-1.82,7.83,7.83,0,0,1-1.25-3,20.19,20.19,0,0,1-.37-4.14v-.66l.22-17.07c0-1.05-.47-1.58-1.41-1.58a12,12,0,0,0-1.29.13c-.66.09-1.51.23-2.55.44s-2.23.46-3.58.77-2.8.68-4.38,1.12l.26,2.1a6.81,6.81,0,0,1,1.12-.15l.94,0a3,3,0,0,1,2.35.85,4.79,4.79,0,0,1,.73,3.18l-.23,14.53a16.42,16.42,0,0,0,.56,4.41,9.11,9.11,0,0,0,1.68,3.4,7.66,7.66,0,0,0,2.92,2.19,10.35,10.35,0,0,0,4.24.79,14,14,0,0,0,2.59-.3c1-.21,2.15-.48,3.37-.82s2.53-.73,3.89-1.2,2.73-1,4.1-1.5l.66,2.46a1.82,1.82,0,0,0,.37.79.92.92,0,0,0,.73.27c.38,0,.82,0,1.34,0s1-.07,1.53-.13l1.49-.18c.49-.05.92-.11,1.3-.17.58-.15.87-.44.87-.88l0-.26C157.49,216.7,157.33,215.9,157.2,215.07Zm35-28.07a4.78,4.78,0,0,0-1.54-1.11,4.86,4.86,0,0,0-2.08-.42,11.07,11.07,0,0,0-2.44.31,23.74,23.74,0,0,0-2.9.85c-1,.37-2,.8-3.09,1.3s-2.07,1-3.07,1.58v-2.24c0-1.05-.47-1.58-1.41-1.58a12,12,0,0,0-1.29.13c-.66.09-1.51.23-2.55.44s-2.23.46-3.57.77-2.81.68-4.39,1.12l.27,2.1a6.85,6.85,0,0,1,1.11-.15l.95,0a3,3,0,0,1,2.33.85,5,5,0,0,1,.74,3.18V218c0,.73.35,1.1,1.05,1.1l1,0,1.45-.09,1.65-.18c.56-.07,1.1-.15,1.6-.24a1.13,1.13,0,0,0,1-1.23V192.71a19.74,19.74,0,0,1,3.23-1.45,9.1,9.1,0,0,1,3-.57,2.81,2.81,0,0,1,2.08.81,4,4,0,0,1,.81,2.83v1a3.46,3.46,0,0,0,.49.06l.48,0h.92a6.12,6.12,0,0,0,2.37-.42,5,5,0,0,0,1.69-1.12,4.57,4.57,0,0,0,1-1.6,5.37,5.37,0,0,0,.32-1.87,5.57,5.57,0,0,0-.3-1.8A4.8,4.8,0,0,0,192.22,187Zm31.35,30.46s0,.14,0,.35c0,.44-.29.7-.87.79-.39.09-.82.17-1.3.24s-1,.13-1.47.18-1,.07-1.49.08l-1.32,0a.91.91,0,0,1-.72-.27,1.71,1.71,0,0,1-.37-.79l-.57-2.1c-1.12.49-2.26,1-3.43,1.38s-2.29.79-3.35,1.1-2.05.54-2.92.72a12.12,12.12,0,0,1-2.15.27,8.94,8.94,0,0,1-4-.86,8.54,8.54,0,0,1-4.43-5,9.22,9.22,0,0,1-.53-3,9.09,9.09,0,0,1,.9-4.23A8.21,8.21,0,0,1,198,203.5a12.4,12.4,0,0,1,3.18-1.66,22.35,22.35,0,0,1,4-1,46.15,46.15,0,0,1,4.74-.55c1.7-.12,3.48-.21,5.36-.27l0-1.49a18.48,18.48,0,0,0-.24-3.62,6.83,6.83,0,0,0-1-2.7,4.72,4.72,0,0,0-2-1.66,7.86,7.86,0,0,0-3.2-.58,24.67,24.67,0,0,0-4.94.53,57.42,57.42,0,0,0-5.86,1.58l-1-2.94q2.28-.92,4.49-1.62t4.17-1.17c1.31-.3,2.49-.53,3.56-.7a18.42,18.42,0,0,1,2.65-.24,16.56,16.56,0,0,1,5.31.73,7.56,7.56,0,0,1,3.47,2.3,9.52,9.52,0,0,1,1.88,4,24.66,24.66,0,0,1,.53,5.86l-.22,14.31a11.52,11.52,0,0,0,.18,2.54C223.23,215.92,223.4,216.7,223.57,217.46ZM215.23,203l-3.86.24c-1.2.07-2.29.18-3.29.33a11,11,0,0,0-2.63.68,4.66,4.66,0,0,0-1.85,1.29,5.41,5.41,0,0,0-.88,1.54,5.71,5.71,0,0,0-.35,2,6.74,6.74,0,0,0,.29,1.89,4.65,4.65,0,0,0,1,1.77,5.39,5.39,0,0,0,2,1.34,8,8,0,0,0,3.12.53,6.42,6.42,0,0,0,.85-.09c.4-.06.88-.16,1.45-.29s1.21-.31,1.91-.54a19.9,19.9,0,0,0,2.15-.88Zm46.6-17.25c-.2,0-.49,0-.85.07l-1.21.15c-.44.06-.89.14-1.36.22s-.92.19-1.36.31a2.25,2.25,0,0,0-.92.46,2.22,2.22,0,0,0-.53.85l-8.2,21.38h-.18l-8.47-21.86a5.81,5.81,0,0,0-.61-1.16,1.13,1.13,0,0,0-1-.42,11.86,11.86,0,0,0-1.4.18c-.73.12-1.62.28-2.68.5s-2.19.48-3.42.77-2.45.61-3.64,1l.26,2.1c.35-.06.69-.1,1-.13s.63,0,.92,0a3.85,3.85,0,0,1,2.33.7,6.71,6.71,0,0,1,1.84,2.76l10.93,25-2.55,5.61a27,27,0,0,1-2.35,4.26,14.26,14.26,0,0,1-2.3,2.65,6.85,6.85,0,0,1-2.33,1.38,7.38,7.38,0,0,1-2.41.4,7.67,7.67,0,0,1-1.93-.24,8.14,8.14,0,0,1-1.93-.81,3.6,3.6,0,0,0-.81,1.38,4.91,4.91,0,0,0-.24,1.47,4.25,4.25,0,0,0,.34,1.71,4.47,4.47,0,0,0,1,1.4,4.72,4.72,0,0,0,1.59,1,5.82,5.82,0,0,0,2.06.35,8.63,8.63,0,0,0,4.87-1.36,14.43,14.43,0,0,0,3.58-3.4,23.5,23.5,0,0,0,2.56-4.41c.7-1.58,1.32-3,1.84-4.35.62-1.48,1.34-3.19,2.18-5.11s1.74-4,2.74-6.12,2-4.42,3.14-6.75,2.21-4.69,3.35-7.05l3.4-7q1.69-3.44,3.27-6.56a1.61,1.61,0,0,0,.22-.74C262.62,185.91,262.36,185.73,261.83,185.73Z"/><path xmlns="http://www.w3.org/2000/svg" class="logo-l" d="M321.55,205.43l2.2.49c0,.2-.08.74-.22,1.62s-.33,1.89-.55,3-.46,2.31-.72,3.51-.53,2.24-.79,3.12a2.14,2.14,0,0,1-2.15,1.49l-8.19-.09q-4.89,0-11.78,0h-7.28a.9.9,0,0,1-.84-.38,1.49,1.49,0,0,1-.22-.72V174.59a6.87,6.87,0,0,0-.24-2,2.81,2.81,0,0,0-.7-1.21,2.59,2.59,0,0,0-1.1-.61,5.2,5.2,0,0,0-1.42-.18,13.92,13.92,0,0,0-1.93.14l-.27-2.42c1.58-.29,3.08-.54,4.5-.74s2.68-.37,3.77-.48,2-.21,2.74-.27,1.2-.09,1.41-.09a1.24,1.24,0,0,1,1.4,1.41v43.61c0,.71,0,1.25.07,1.65a1.64,1.64,0,0,0,.35.92,1.48,1.48,0,0,0,1,.42,16.41,16.41,0,0,0,1.84.09h4.34q3.51,0,5.73-.18a8.44,8.44,0,0,0,3.75-1.1,8.35,8.35,0,0,0,2.72-2.81A37.29,37.29,0,0,0,321.55,205.43Zm15.36-45.94a37.29,37.29,0,0,0-3.73.55c-2.08.37-4.72,1-7.94,1.87l.26,2.1a13.14,13.14,0,0,1,1.8-.13,3.12,3.12,0,0,1,2.46.86,5,5,0,0,1,.75,3.18V218c0,.73.35,1.1,1.05,1.1l1,0L334,219l1.64-.18c.57-.07,1.11-.15,1.6-.24a1.12,1.12,0,0,0,1.05-1.23v-56.3C338.31,160,337.85,159.49,336.91,159.49Zm38.09,58s0,.14,0,.35c0,.44-.29.7-.87.79-.38.09-.82.17-1.3.24s-1,.13-1.47.18-1,.07-1.49.08l-1.32,0a.91.91,0,0,1-.72-.27,1.71,1.71,0,0,1-.37-.79l-.57-2.1c-1.12.49-2.26,1-3.43,1.38s-2.29.79-3.35,1.1-2,.54-2.92.72a12.12,12.12,0,0,1-2.15.27,8.94,8.94,0,0,1-4-.86,8.54,8.54,0,0,1-4.43-5,9.22,9.22,0,0,1-.53-3,9.09,9.09,0,0,1,.9-4.23,8.21,8.21,0,0,1,2.44-2.88,12.4,12.4,0,0,1,3.18-1.66,22.35,22.35,0,0,1,4-1,46.15,46.15,0,0,1,4.74-.55c1.7-.12,3.48-.21,5.36-.27l0-1.49a18.48,18.48,0,0,0-.24-3.62,6.83,6.83,0,0,0-1-2.7,4.72,4.72,0,0,0-2-1.66,7.86,7.86,0,0,0-3.2-.58,24.67,24.67,0,0,0-4.94.53,57.42,57.42,0,0,0-5.86,1.58l-1-2.94q2.28-.92,4.49-1.62t4.17-1.17c1.31-.3,2.49-.53,3.56-.7a18.42,18.42,0,0,1,2.65-.24,16.56,16.56,0,0,1,5.31.73,7.56,7.56,0,0,1,3.47,2.3,9.52,9.52,0,0,1,1.88,4,24.66,24.66,0,0,1,.53,5.86l-.22,14.31a11.52,11.52,0,0,0,.18,2.54C374.66,215.92,374.83,216.7,375,217.46ZM366.66,203l-3.86.24c-1.2.07-2.3.18-3.29.33a11,11,0,0,0-2.63.68,4.66,4.66,0,0,0-1.85,1.29,5.17,5.17,0,0,0-.87,1.54,5.5,5.5,0,0,0-.36,2,6.74,6.74,0,0,0,.29,1.89,4.65,4.65,0,0,0,1,1.77,5.39,5.39,0,0,0,1.95,1.34,8,8,0,0,0,3.12.53,6.42,6.42,0,0,0,.85-.09c.4-.06.88-.16,1.45-.29s1.21-.31,1.91-.54a19.9,19.9,0,0,0,2.15-.88Zm42.66,10.2c-.74.19-1.48.35-2.24.48s-1.51.24-2.24.33a16.24,16.24,0,0,1-2,.13A14.21,14.21,0,0,1,397,213a11.09,11.09,0,0,1-4.06-3,12.8,12.8,0,0,1-2.39-4.5,18.66,18.66,0,0,1-.79-5.55,16.39,16.39,0,0,1,.48-4,9.16,9.16,0,0,1,1.54-3.29,7.58,7.58,0,0,1,2.74-2.24,9.38,9.38,0,0,1,4.15-.83,7.1,7.1,0,0,1,2.7.42,3.41,3.41,0,0,1,1.51,1.18,4.14,4.14,0,0,1,.66,1.82,20.55,20.55,0,0,1,.13,2.33v.83a13.8,13.8,0,0,0,1.93.13,6.65,6.65,0,0,0,3.81-1,3.72,3.72,0,0,0,1.54-3.35,5.52,5.52,0,0,0-.81-3.08,6.21,6.21,0,0,0-2.13-2,9.2,9.2,0,0,0-3-1.05,17.58,17.58,0,0,0-3.31-.31,22.9,22.9,0,0,0-7.72,1.27,19,19,0,0,0-6.28,3.62,17,17,0,0,0-4.21,5.66,17.32,17.32,0,0,0-1.54,7.4,18.84,18.84,0,0,0,1,6.05,15.48,15.48,0,0,0,2.81,5.11,13.47,13.47,0,0,0,4.54,3.54,13.94,13.94,0,0,0,6.21,1.31,18.6,18.6,0,0,0,3-.32c1.23-.22,2.56-.53,4-.93s2.91-.86,4.43-1.4,3-1.12,4.34-1.74l-1-2.45C410.72,212.79,410.05,213,409.32,213.18Zm26.78,1.1a14,14,0,0,1-2.65.28,6.14,6.14,0,0,1-4.13-1.34,5.3,5.3,0,0,1-1.58-4.27V190.3l10-.05.17-2.72v-.09a.83.83,0,0,0-.28-.7,1.05,1.05,0,0,0-.64-.22c-.9,0-2.18,0-3.83.07s-3.47.11-5.43.2v-9c0-.73-.32-1.09-1-1.09a4.65,4.65,0,0,0-1,.15c-.42.1-.91.24-1.45.4s-1.11.34-1.71.54-1.18.41-1.73.62a1.25,1.25,0,0,0-.79.63,3.71,3.71,0,0,0-.17,1.34v6.76l-2.68.18-2.5.17.13,2.94,5.05-.13v19.53a11.76,11.76,0,0,0,.65,4.1,8.48,8.48,0,0,0,1.84,3,7.56,7.56,0,0,0,2.84,1.85,10.22,10.22,0,0,0,3.62.61,11.24,11.24,0,0,0,2-.26c.86-.18,1.82-.42,2.87-.75s2.16-.69,3.32-1.12,2.29-.88,3.4-1.38l-.92-2.68A21.66,21.66,0,0,1,436.1,214.28ZM472,217.46s0,.14,0,.35c0,.44-.29.7-.87.79-.38.09-.81.17-1.3.24s-1,.13-1.47.18-1,.07-1.49.08l-1.32,0a.91.91,0,0,1-.72-.27,1.71,1.71,0,0,1-.37-.79l-.58-2.1c-1.11.49-2.25,1-3.42,1.38s-2.28.79-3.35,1.1-2,.54-2.92.72a12.12,12.12,0,0,1-2.15.27,8.72,8.72,0,0,1-6.85-3,8.77,8.77,0,0,1-1.62-2.86,9.22,9.22,0,0,1-.53-3,9.09,9.09,0,0,1,.9-4.23,8.21,8.21,0,0,1,2.44-2.88,12.4,12.4,0,0,1,3.18-1.66,22.24,22.24,0,0,1,4-1,45,45,0,0,1,4.73-.55c1.7-.12,3.48-.21,5.36-.27l0-1.49a18.48,18.48,0,0,0-.24-3.62,7,7,0,0,0-1-2.7,4.72,4.72,0,0,0-2-1.66,7.86,7.86,0,0,0-3.2-.58,24.67,24.67,0,0,0-4.94.53,57.42,57.42,0,0,0-5.86,1.58l-1-2.94q2.28-.92,4.49-1.62t4.17-1.17c1.3-.3,2.49-.53,3.55-.7a18.66,18.66,0,0,1,2.66-.24,16.56,16.56,0,0,1,5.31.73,7.56,7.56,0,0,1,3.47,2.3,9.64,9.64,0,0,1,1.88,4,24.66,24.66,0,0,1,.53,5.86l-.22,14.31a11.52,11.52,0,0,0,.18,2.54C471.68,215.92,471.84,216.7,472,217.46ZM463.68,203l-3.86.24c-1.2.07-2.3.18-3.29.33a11,11,0,0,0-2.63.68,4.56,4.56,0,0,0-1.84,1.29,5,5,0,0,0-.88,1.54,5.5,5.5,0,0,0-.35,2,6.71,6.71,0,0,0,.28,1.89,4.65,4.65,0,0,0,1,1.77,5.48,5.48,0,0,0,1.95,1.34,8,8,0,0,0,3.12.53,6.42,6.42,0,0,0,.85-.09c.4-.06.88-.16,1.45-.29s1.21-.31,1.91-.54a19.9,19.9,0,0,0,2.15-.88Zm46.6-17.25c-.2,0-.49,0-.85.07l-1.21.15c-.44.06-.89.14-1.36.22s-.92.19-1.36.31a2.25,2.25,0,0,0-.92.46,2.22,2.22,0,0,0-.53.85l-8.2,21.38h-.18l-8.47-21.86a5.81,5.81,0,0,0-.61-1.16,1.12,1.12,0,0,0-1-.42,11.68,11.68,0,0,0-1.41.18c-.73.12-1.62.28-2.68.5s-2.19.48-3.42.77-2.44.61-3.64,1l.26,2.1c.35-.06.69-.1,1-.13s.63,0,.92,0a3.85,3.85,0,0,1,2.33.7,6.71,6.71,0,0,1,1.84,2.76l10.93,25-2.55,5.61a27,27,0,0,1-2.35,4.26,14.26,14.26,0,0,1-2.3,2.65,6.85,6.85,0,0,1-2.33,1.38,7.38,7.38,0,0,1-2.41.4,7.67,7.67,0,0,1-1.93-.24,8,8,0,0,1-1.93-.81,3.6,3.6,0,0,0-.81,1.38,4.93,4.93,0,0,0-.25,1.47,4.1,4.1,0,0,0,.36,1.71,4.17,4.17,0,0,0,1,1.4,4.58,4.58,0,0,0,1.58,1,5.82,5.82,0,0,0,2.06.35,8.63,8.63,0,0,0,4.87-1.36,14.26,14.26,0,0,0,3.58-3.4,23.5,23.5,0,0,0,2.56-4.41q1.05-2.37,1.85-4.35c.61-1.48,1.33-3.19,2.17-5.11s1.75-4,2.74-6.12,2-4.42,3.14-6.75,2.21-4.69,3.35-7.05,2.28-4.68,3.41-7,2.21-4.48,3.26-6.56a1.61,1.61,0,0,0,.22-.74C511.07,185.91,510.81,185.73,510.28,185.73Z"/><path xmlns="http://www.w3.org/2000/svg" class="isotipo" d="M342.32,62.46v59.41H289v-32h23.62v10.67H299.67v10.66h32V73.12H269.2V131H167.13V41.13h83.79v59.42H197.6v-32h23.61V79.22h-13V89.88h32V51.8H177.79v68.55h80.74V62.46ZM191.39,17.52A17.52,17.52,0,1,1,208.91,35,17.54,17.54,0,0,1,191.39,17.52Zm10.66,0a6.86,6.86,0,1,0,6.86-6.86A6.86,6.86,0,0,0,202.05,17.52Zm81,18.26A17.52,17.52,0,1,1,300.55,53.3,17.54,17.54,0,0,1,283,35.78Zm10.66,0a6.86,6.86,0,1,0,6.86-6.86A6.87,6.87,0,0,0,293.69,35.78Z"/></g></g></svg>